<svg height="512pt" viewBox="0 0 512 512" width="512pt" xmlns="http://www.w3.org/2000/svg"><path d="m512 256c0 141.386719-114.613281 256-256 256s-256-114.613281-256-256 114.613281-256 256-256 256 114.613281 256 256zm0 0" fill="#2385ec"/><path d="m506.589844 162.742188-60.253906-137.871094-9.574219 4.1875-9.574219-4.1875-50.679688 115.964844-50.679687-115.964844-9.574219 4.1875-9.574218-4.1875-50.847657 116.347656-50.847656-116.347656-9.574219 4.1875-9.574218-4.1875-50.679688 115.964844-50.679688-115.964844-9.574218 4.1875-9.574219-4.1875-60.253906 137.871094 19.148437 8.371093 50.679688-115.964843 50.679687 115.964843 9.574219-4.1875 9.574219 4.1875 50.679687-115.964843 50.679688 115.964843 9.742187-4.261719 9.742188 4.261719 50.679687-115.964843 50.679688 115.964843 9.574218-4.1875 9.574219 4.1875 50.679688-115.964843 50.679687 115.964843zm0 0" fill="#272f38"/><path d="m211.746094 170.671875h88.507812v51.742187h-88.507812zm0 0" fill="#272f38"/><g fill="#484f60"><path d="m0 16.378906h512v30.636719h-512zm0 0"/><path d="m0 151.183594h512v30.636718h-512zm0 0"/><path d="m272.003906 330.828125v-41.207031h-39.074218v63.074218c0 12.054688 6.472656 23.269532 17.0625 29.027344 11.140624 6.058594 18.695312 17.867188 18.695312 31.4375 0 19.742188-16 35.757813-35.757812 35.757813-17.644532 0-32.3125-12.789063-35.230469-29.605469-.613281-3.535156-3.613281-6.152344-7.203125-6.152344h-2.328125c-3.96875 0-7.183594 3.210938-7.183594 7.179688v.070312c0 41.425782 33.59375 75.019532 75.019531 75.019532 41.433594 0 75.015625-33.59375 75.015625-75.019532 0-30.890625-18.667969-57.402344-45.339843-68.898437-8.277344-3.570313-13.675782-11.667969-13.675782-20.683594zm0 0"/></g><path d="m249.992188 381.722656c11.140624 6.058594 18.695312 17.867188 18.695312 31.4375 0 17.171875-12.109375 31.519532-28.261719 34.964844 2.414063.515625 4.914063.792969 7.484375.792969 19.753906 0 35.757813-16.011719 35.757813-35.757813 0-13.570312-7.558594-25.378906-18.699219-31.4375-10.589844-5.757812-17.058594-16.972656-17.058594-29.027344v-63.074218h-14.980468v63.074218c0 12.054688 6.472656 23.269532 17.0625 29.027344zm0 0" fill="#272f38"/><path d="m195.960938 420.414062v-.074218c.003906-1.246094.320312-2.417969.878906-3.441406-1.265625-2.25-3.636719-3.742188-6.339844-3.742188h-2.332031c-3.964844 0-7.183594 3.214844-7.183594 7.179688v.074218c0 41.425782 33.59375 75.019532 75.019531 75.019532 2.527344 0 5.023438-.128907 7.488282-.375-37.910157-3.757813-67.53125-35.746094-67.53125-74.640626zm0 0" fill="#272f38"/><path d="m299.441406 313.757812h-86.882812c-8.644532 0-16.085938-6.101562-17.777344-14.578124l-14.328125-71.769532c-2.242187-11.214844 6.339844-21.675781 17.773437-21.675781h115.546876c11.433593 0 20.015624 10.460937 17.773437 21.675781l-14.328125 71.769532c-1.691406 8.476562-9.132812 14.578124-17.777344 14.578124zm0 0" fill="#fee887"/><path d="m233.085938 313.761719h-20.53125c-8.640626 0-16.082032-6.101563-17.773438-14.578125l-14.324219-71.773438c-2.238281-11.210937 6.339844-21.671875 17.773438-21.671875h20.53125c-11.441407 0-20.019531 10.460938-17.773438 21.671875l14.324219 71.773438c1.695312 8.476562 9.132812 14.578125 17.773438 14.578125zm0 0" fill="#fd9b3d"/><path d="m283.921875 259.746094c0 15.421875-12.5 27.921875-27.921875 27.921875s-27.921875-12.5-27.921875-27.921875 12.5-27.921875 27.921875-27.921875 27.921875 12.5 27.921875 27.921875zm0 0" fill="#fc5b5b"/></svg>