<svg height="512pt" viewBox="0 -6 512 512" width="512pt" xmlns="http://www.w3.org/2000/svg"><path d="m500.324219 250.160156c0 54.628906-17.511719 105.171875-47.226563 146.3125-45.4375 62.90625-119.402344 103.851563-202.9375 103.851563-76.25 0-144.539062-34.113281-190.417968-87.925781-37.257813-43.667969-59.742188-100.328126-59.742188-162.238282 0-138.160156 112-250.160156 250.160156-250.160156 138.164063 0 250.164063 112 250.164063 250.160156zm0 0" fill="#304e87"/><path d="m331.796875 86.957031v-55.886719h115.878906v171.753907" fill="#f2efea"/><path d="m331.796875 86.957031v-55.886719h47.328125v171.753907" fill="#e5e1dc"/><path d="m453.097656 227.8125v168.660156c-45.4375 62.90625-119.402344 103.851563-202.9375 103.851563-76.25 0-144.539062-34.113281-190.417968-87.925781v-132.484376l-.4375-31.753906 13.097656-13.9375 130.820312-139.253906 53.199219-56.636719 6.042969 5.820313 139.886718 134.757812zm0 0" fill="#f2efea"/><path d="m453.105469 229.671875v83.199219l-188.078125-188.078125-205.28125 205.28125v-50.148438l-.4375-31.757812 13.097656-13.941407 190.0625-190.070312 2.558594-2.5625 137.324218 137.328125zm0 0" fill="#e5e1dc"/><path d="m42.011719 306.265625-41.597657-41.597656 264.617188-264.6171878 246.96875 246.9687498-41.597656 41.597657-205.371094-205.375zm0 0" fill="#fb3a4a"/><path d="m340.710938 248.589844h-156.464844c-13.898438 0-25.164063 11.269531-25.164063 25.167968v156.460938c0 13.898438 11.265625 25.164062 25.164063 25.164062h156.464844c13.898437 0 25.164062-11.265624 25.164062-25.164062v-156.460938c0-13.898437-11.265625-25.167968-25.164062-25.167968zm0 0" fill="#fb3a4a"/><g fill="#fecf32"><path d="m248.839844 326.171875c.910156-12.191406.910156-24.386719 0-36.582031-.484375-6.503906-5.671875-11.691406-12.175782-12.179688-12.195312-.910156-24.390624-.910156-36.585937 0-6.503906.488282-11.691406 5.675782-12.175781 12.179688-.910156 12.195312-.910156 24.390625 0 36.582031.484375 6.503906 5.671875 11.691406 12.175781 12.179687 12.195313.910157 24.390625.910157 36.585937 0 6.503907-.488281 11.691407-5.675781 12.175782-12.179687zm0 0"/><path d="m248.839844 414.390625c.910156-12.195313.910156-24.390625 0-36.585937-.484375-6.503907-5.671875-11.691407-12.175782-12.179688-12.195312-.910156-24.390624-.910156-36.585937 0-6.503906.488281-11.691406 5.675781-12.175781 12.179688-.910156 12.195312-.910156 24.390624 0 36.585937.484375 6.5 5.671875 11.6875 12.175781 12.175781 12.195313.910156 24.390625.910156 36.585937 0 6.503907-.488281 11.691407-5.675781 12.175782-12.175781zm0 0"/><path d="m337.054688 326.171875c.914062-12.191406.914062-24.386719 0-36.582031-.484376-6.503906-5.671876-11.691406-12.175782-12.179688-12.195312-.910156-24.390625-.910156-36.585937 0-6.503907.488282-11.691407 5.675782-12.175781 12.179688-.910157 12.195312-.910157 24.390625 0 36.582031.484374 6.503906 5.671874 11.691406 12.175781 12.179687 12.195312.910157 24.390625.910157 36.585937 0 6.503906-.488281 11.691406-5.675781 12.175782-12.179687zm0 0"/><path d="m337.054688 414.390625c.914062-12.195313.914062-24.390625 0-36.585937-.484376-6.503907-5.671876-11.691407-12.175782-12.179688-12.195312-.910156-24.390625-.910156-36.585937 0-6.503907.488281-11.691407 5.675781-12.175781 12.179688-.910157 12.195312-.910157 24.390624 0 36.585937.484374 6.5 5.671874 11.6875 12.175781 12.175781 12.195312.910156 24.390625.910156 36.585937 0 6.503906-.488281 11.691406-5.675781 12.175782-12.175781zm0 0"/></g><path d="m331.796875 37.035156h115.878906v15.144532h-115.878906zm0 0" fill="#e5e1dc"/><path d="m325.210938 0h129.164062v40.609375h-129.164062zm0 0" fill="#fb3a4a"/><path d="m325.210938 0h16.929687v40.609375h-16.929687zm0 0" fill="#dd104f"/></svg>