<svg height="496pt" viewBox="0 0 496 496" width="496pt" xmlns="http://www.w3.org/2000/svg"><path d="m488 248c0 132.546875-107.453125 240-240 240s-240-107.453125-240-240 107.453125-240 240-240 240 107.453125 240 240zm0 0" fill="#85d3c1"/><path d="m288 315.039062 16.160156 4.402344-.160156.558594v13.519531c0 11.359375-6.398438 21.679688-16.480469 26.71875-9.597656 4.800781-21.039062 4.082031-29.917969-1.839843l-9.601562-6.398438 40-40zm0 0" fill="#ff958a"/><path d="m208 315.039062v-3.039062l40 40-9.601562 6.398438c-8.878907 5.921874-20.320313 6.640624-29.917969 1.839843-10.082031-5.039062-16.480469-15.359375-16.480469-26.71875v-13.519531l-.160156-.558594zm0 0" fill="#ff958a"/><path d="m368.878906 336.960938 1.601563.398437c17.441406 4.800781 29.519531 20.5625 29.519531 38.640625v56l.878906.960938c-19.277344 16-41.199218 29.039062-64.878906 38.320312-27.28125 10.796875-56.960938 16.71875-88 16.71875v-136l9.601562 6.398438c8.878907 5.921874 20.320313 6.640624 29.917969 1.839843 10.082031-5.039062 16.480469-15.359375 16.480469-26.71875v-13.519531l.160156-.558594zm0 0" fill="#f5f7fa"/><path d="m248 352v136c-31.039062 0-60.71875-5.921875-88-16.71875-23.679688-9.28125-45.601562-22.320312-64.878906-38.320312l.878906-.960938v-56c0-18.078125 12.078125-33.839844 29.519531-38.640625l1.601563-.398437 64.71875-17.519532.160156.558594v13.519531c0 11.359375 6.398438 21.679688 16.480469 26.71875 9.597656 4.800781 21.039062 4.082031 29.917969-1.839843zm0 0" fill="#f5f7fa"/><path d="m208 312v3.039062l-16.160156 4.402344-64.71875 17.519532-19.28125-11.679688c-6.160156-3.679688-11.121094-8.800781-14.558594-14.882812-3.359375-6-5.28125-12.957032-5.28125-20.078126 0-10.800781 4.320312-21.199218 11.921875-28.878906l24.15625-24.082031c7.601563-7.679687 11.921875-18 11.921875-28.878906v-15.039063c0 17.597656 14.320312 32 32 32h.398438c1.839843 18.878906 10.320312 35.839844 23.042968 48.558594 5.277344 5.28125 11.199219 9.761719 17.757813 13.359375l-1.199219 2.082031zm0 0" fill="#f9d48a"/><path d="m408 290.320312c0 14.320313-7.519531 27.601563-19.839844 34.960938l-19.28125 11.679688-64.71875-17.519532-16.160156-4.402344v-25.597656l-1.199219-2.082031c22.320313-12.398437 38.160157-35.199219 40.800781-61.917969h.398438c17.679688 0 32-14.402344 32-32v15.039063c0 10.878906 4.320312 21.199219 11.921875 28.878906l24.15625 24.082031c7.601563 7.679688 11.921875 18.078125 11.921875 28.878906zm0 0" fill="#f9d48a"/><path d="m328.800781 125.839844c18.878907 9.359375 31.199219 18.160156 31.199219 18.160156v49.441406c0-17.679687-14.320312-32-32-32v-33.441406zm0 0" fill="#f9d48a"/><path d="m248 104c29.761719 0 59.519531 11.28125 80.800781 21.839844l-.800781 2.160156c-4.71875 18.800781-21.601562 32-40.960938 32h-14v-8.960938c-7.277343 5.679688-16.320312 8.960938-26 8.960938h-6v-8.960938c-7.277343 5.679688-16.320312 8.960938-26 8.960938h-6v-8.960938c-7.277343 5.679688-16.320312 8.960938-26 8.960938h-15.039062v1.441406c-17.679688 0-32 14.320313-32 32v-49.441406s56-40 112-40zm0 0" fill="#f9d48a"/><g fill="#f5f7fa"><path d="m374.960938 82.320312-112.160157-70.082031c-4-2.558593-8.5625-3.917969-13.28125-4.160156-.480469-.078125-1.039062-.078125-1.519531-.078125-5.199219 0-10.320312 1.441406-14.800781 4.238281l-112.160157 70.082031c-5.597656 3.519532-9.039062 9.679688-9.039062 16.320313 0 3.519531.960938 6.960937 2.71875 9.917969l21.28125 35.441406s56-40 112-40c29.761719 0 59.519531 11.28125 80.800781 21.839844 18.878907 9.359375 31.199219 18.160156 31.199219 18.160156l21.28125-35.441406c1.757812-2.957032 2.71875-6.398438 2.71875-9.917969 0-6.640625-3.441406-12.800781-9.039062-16.320313zm0 0"/><path d="m360 193.441406c0 17.597656-14.320312 32-32 32h-.398438c.238282-2.640625.398438-5.28125.398438-8v-56c17.679688 0 32 14.320313 32 32zm0 0"/><path d="m287.039062 160h-14v-8.960938c-7.277343 5.679688-16.320312 8.960938-26 8.960938h-6v-8.960938c-7.277343 5.679688-16.320312 8.960938-26 8.960938h-6v-8.960938c-7.277343 5.679688-16.320312 8.960938-26 8.960938h-15.039062v57.441406c0 2.71875.160156 5.359375.398438 8 1.839843 18.878906 10.320312 35.839844 23.042968 48.558594 5.277344 5.28125 11.199219 9.761719 17.757813 13.359375l-1.199219 2.082031v22.558594l40 40 40-40v-22.558594l-1.199219-2.082031c22.320313-12.398437 38.160157-35.199219 40.800781-61.917969.238282-2.640625.398438-5.28125.398438-8v-89.441406c-4.71875 18.800781-21.601562 32-40.960938 32zm0 0"/><path d="m168 161.441406v56c0 2.71875.160156 5.359375.398438 8h-.398438c-17.679688 0-32-14.402344-32-32 0-17.679687 14.320312-32 32-32zm0 0"/></g><path d="m248 257.398438c-8.824219 0-16-7.175782-16-16h-16c0 17.648437 14.351562 32 32 32s32-14.351563 32-32h-16c0 8.824218-7.175781 16-16 16zm0 0"/><path d="m216 193.398438c0 4.417968-3.582031 8-8 8s-8-3.582032-8-8c0-4.417969 3.582031-8 8-8s8 3.582031 8 8zm0 0"/><path d="m296 193.398438c0 4.417968-3.582031 8-8 8s-8-3.582032-8-8c0-4.417969 3.582031-8 8-8s8 3.582031 8 8zm0 0"/><path d="m256 32h-16v16h-16v16h16v16h16v-16h16v-16h-16zm0 0"/><path d="m208 400h16v16h-16zm0 0"/><path d="m208 440h16v16h-16zm0 0"/><path d="m248 0c-136.742188 0-248 111.257812-248 248s111.257812 248 248 248 248-111.257812 248-248-111.257812-248-248-248zm144 429.695312c-14.671875 11.648438-30.769531 21.550782-48 29.425782v-8.695313l7.160156-10.746093c5.785156-8.671876 8.839844-18.769532 8.839844-29.191407 0-14.054687-5.472656-27.28125-15.414062-37.214843l-.585938-.585938v-12.6875h-16v19.3125l5.273438 5.273438c6.917968 6.917968 10.726562 16.117187 10.726562 25.902343 0 7.253907-2.128906 14.28125-6.152344 20.320313l-9.847656 14.765625v20.203125c-22.566406 8.320312-46.785156 13.160156-72 14.023437v-113.144531c5.632812 3.078125 11.863281 4.734375 18.160156 4.734375 5.785156 0 11.582032-1.320313 16.910156-3.984375 12.914063-6.453125 20.929688-19.421875 20.929688-33.863281v-3.71875l56.375 15.289062c13.914062 3.773438 23.625 16.480469 23.625 30.886719zm-233.847656 1.113282c-4.023438-6.039063-6.152344-13.066406-6.152344-20.320313 0-9.785156 3.808594-18.984375 10.726562-25.902343l5.273438-5.273438v-19.3125h-16v12.6875l-.585938.585938c-9.941406 9.933593-15.414062 23.160156-15.414062 37.214843 0 10.421875 3.054688 20.519531 8.839844 29.191407l7.160156 10.746093v8.695313c-17.230469-7.863282-33.328125-17.769532-48-29.425782v-53.695312c0-14.40625 9.710938-27.113281 23.625-30.878906l56.375-15.289063v3.71875c0 14.433594 8.015625 27.410157 20.929688 33.855469 5.335937 2.664062 11.132812 3.984375 16.917968 3.984375 6.289063 0 12.527344-1.65625 18.160156-4.734375v113.144531c-25.214843-.863281-49.433593-5.703125-72-14.023437v-20.203125zm193.847656-269.199219c-4.671875-3.539063-10.054688-6.183594-16-7.394531v-15.519532c7.175781 3.960938 12.726562 7.433594 16 9.570313zm-16 54.320313v-45.050782c9.289062 3.3125 16 12.113282 16 22.527344 0 10.417969-6.710938 19.210938-16 22.523438zm-48.007812 107.390624 8.007812 2.167969v8.054688c0 8.335937-4.632812 15.824219-12.078125 19.546875-6.992187 3.503906-15.386719 2.980468-21.898437-1.363282l-1.464844-.972656zm-7.992188-14.632812-32 32-32-32v-9.398438c9.9375 3.894532 20.703125 6.109376 32 6.109376s22.0625-2.214844 32-6.109376zm-80 16.800781 8.007812-2.167969 27.433594 27.441407-1.464844.972656c-6.503906 4.335937-14.90625 4.851563-21.898437 1.363281-7.445313-3.730468-12.078125-11.21875-12.078125-19.554687zm48-36.089843c-39.695312 0-72-32.300782-72-72v-49.398438h7.015625c9.039063 0 17.570313-2.457031 24.984375-6.71875v6.71875h7.015625c9.039063 0 17.570313-2.457031 24.984375-6.71875v6.71875h7.015625c9.039063 0 17.570313-2.457031 24.984375-6.71875v6.71875h15.015625c12.535156 0 24.074219-4.71875 32.984375-12.519531v61.917969c0 39.707031-32.304688 72-72 72zm-88-73.46875c-9.289062-3.3125-16-12.113282-16-22.53125 0-10.414063 6.710938-19.214844 16-22.527344zm127.015625-63.929688h-3.230469c5.648438-6.0625 9.855469-13.566406 11.984375-22.054688l-15.523437-3.882812c-3.390625 13.578125-14.574219 23.464844-28.0625 25.503906 5.449218-5.992187 9.519531-13.335937 11.59375-21.621094l-15.519532-3.882812c-3.394531 13.578125-14.578124 23.464844-28.066406 25.503906 5.449219-5.992187 9.519532-13.335937 11.59375-21.621094l-15.519531-3.882812c-3.851563 15.273438-17.503906 25.9375-33.25 25.9375h-7.015625v-21.457031c20.03125-9.382813 46.167969-18.542969 72-18.542969 25.34375 0 51.007812 8.816406 70.886719 18.015625-5.03125 13.097656-17.542969 21.984375-31.871094 21.984375zm-127.015625 2.207031c-5.945312 1.21875-11.328125 3.855469-16 7.394531v-13.355468c3.273438-2.132813 8.824219-5.605469 16-9.566406zm-18.296875 69.089844c5.480469 4.824219 12.21875 8.183594 19.730469 9.4375 4.300781 24.363281 18.613281 45.273437 38.574218 58.328125v17.847656l-71.582031 19.410156-16.496093-9.894531c-9.824219-5.890625-15.929688-16.664062-15.929688-28.121093 0-8.761719 3.40625-17 9.609375-23.191407l24.101563-24.105469c5.609374-5.609374 9.65625-12.351562 11.992187-19.710937zm225.882813 105.023437-71.585938-19.410156v-17.847656c19.960938-13.046875 34.265625-33.964844 38.574219-58.328125 7.515625-1.253906 14.25-4.605469 19.730469-9.4375 2.328124 7.351563 6.382812 14.09375 11.992187 19.710937l24.101563 24.105469c6.195312 6.191407 9.601562 14.421875 9.601562 23.191407 0 11.457031-6.105469 22.230468-15.929688 28.128906zm-10.136719-195.609374c-17.257813-10.941407-62.832031-36.710938-109.449219-36.710938s-92.191406 25.769531-109.449219 36.710938l-16.949219-28.253907c-1.050781-1.746093-1.601562-3.746093-1.601562-5.785156 0-3.902344 1.976562-7.472656 5.289062-9.535156l112.167969-70.113281c6.335938-3.953126 14.757813-3.953126 21.09375 0l112.167969 70.113281c3.304688 2.0625 5.28125 5.632812 5.28125 9.527343 0 2.039063-.550781 4.039063-1.601562 5.785157zm-341.449219 115.289062c0-113.527344 81.992188-208.207031 189.847656-228.097656l-89.039062 55.65625c-8.015625 5.007812-12.808594 13.648437-12.808594 23.105468 0 4.9375 1.34375 9.785157 3.878906 14.015626l20.121094 33.535156v62.289062c0 8.761719-3.40625 17-9.609375 23.191406l-24.101563 24.097657c-9.210937 9.214843-14.289062 21.472656-14.289062 34.511719 0 17.039062 9.078125 33.078124 23.6875 41.839843l6.152344 3.695313c-13.304688 8.6875-21.839844 23.648437-21.839844 40.160156v39.761719c-44.3125-42.28125-72-101.824219-72-167.761719zm392 167.761719v-39.761719c0-16.511719-8.535156-31.472656-21.847656-40.160156l6.152344-3.6875c14.617187-8.769532 23.695312-24.800782 23.695312-41.839844 0-13.039062-5.078125-25.296875-14.296875-34.503906l-24.101563-24.105469c-6.195312-6.199219-9.601562-14.4375-9.601562-23.199219v-62.289062l20.121094-33.527344c2.535156-4.230469 3.878906-9.078125 3.878906-14.023438 0-9.457031-4.792969-18.097656-12.808594-23.105468l-89.039062-55.65625c107.855468 19.890625 189.847656 114.570312 189.847656 228.097656 0 65.9375-27.6875 125.480469-72 167.761719zm0 0"/></svg>