<?xml version="1.0" encoding="iso-8859-1"?>
<!-- Generator: Adobe Illustrator 19.0.0, SVG Export Plug-In . SVG Version: 6.00 Build 0)  -->
<svg version="1.1" id="Layer_1" xmlns="http://www.w3.org/2000/svg" xmlns:xlink="http://www.w3.org/1999/xlink" x="0px" y="0px"
	 viewBox="0 0 512.006 512.006" style="enable-background:new 0 0 512.006 512.006;" xml:space="preserve">
<path style="fill:#EB305B;" d="M512.002,255.406c0.144,64.931-23.883,124.266-63.632,169.489
	c-8.583,9.771-17.909,18.886-27.869,27.247c-42.414,35.63-96.564,57.736-155.832,59.712c-2.676,0.089-5.374,0.133-8.072,0.144
	c-2.842,0.011-5.663-0.033-8.483-0.122c-59.157-1.788-113.296-23.661-155.788-59.046c-9.971-8.294-19.308-17.343-27.913-27.047
	c-39.949-45.045-64.265-104.269-64.409-169.2C-0.318,115.195,114.033,0.323,255.42,0.001
	C396.796-0.321,511.68,114.019,512.002,255.406z"/>
<path style="fill:#F2F2F2;" d="M420.497,452.147c-42.414,35.63-96.564,57.736-155.832,59.712c-2.676,0.089-5.374,0.133-8.072,0.144
	c-2.842,0.011-5.663-0.033-8.483-0.122c-46.6-1.41-90.091-15.278-127.219-38.417c-10.004-6.218-19.553-13.124-28.568-20.63
	c26.126-26.947,58.835-47.499,95.542-59.057c5.274-1.665,10.637-3.131,16.066-4.419c8.616-2.032,17.41-3.575,26.37-4.597
	c5.874-0.688,11.803-1.133,17.809-1.355c2.687-0.111,5.385-0.155,8.105-0.167c2.831-0.011,5.651,0.033,8.449,0.144
	c21.385,0.722,42.036,4.386,61.556,10.581C362.35,405.459,394.604,425.677,420.497,452.147z"/>
<path style="fill:#E6E6E6;" d="M230.305,384.757l-11.947,14.645c0,0-63.077,25.726-97.463,74.058
	c-10.004-6.218-19.553-13.124-28.568-20.63c29.878-30.822,68.373-53.273,111.608-63.476
	C212.551,387.322,221.344,385.778,230.305,384.757z"/>
<path style="fill:#E0B775;" d="M326.22,393.967c-17.598,24.993-40.693,40.582-66.075,41.726c-0.133,0.011-0.255,0.033-0.389,0.033
	c-0.877,0.044-1.765,0.055-2.654,0.055c-0.888,0-1.776-0.011-2.654-0.055c-0.122,0-0.255-0.022-0.378-0.033
	c-25.448-1.144-48.587-16.81-66.208-41.914c5.274-1.665,10.637-3.131,16.066-4.419c8.616-2.032,17.41-3.575,26.37-4.597
	c5.874-0.688,11.803-1.133,17.809-1.355c2.687-0.111,5.385-0.155,8.105-0.167c2.831-0.011,5.651,0.033,8.449,0.144
	C286.049,384.107,306.701,387.771,326.22,393.967z"/>
<path style="fill:#4D4D4D;" d="M85.572,272.947c0,0,5.949,102.905,103.772,110.198c97.823,7.294-5.066-60.066-5.066-60.066h-55.516
	l-35.16-23.686"/>
<path style="fill:#666666;" d="M428.642,272.947c0,0-5.949,102.905-103.772,110.198c-97.823,7.294,5.066-60.066,5.066-60.066h55.516
	l35.16-23.686"/>
<g>
	<path style="fill:#EFC881;" d="M192.313,254.102c0-17.945-15.523-32.492-34.672-32.492s-34.672,14.547-34.672,32.492
		c0,17.945,15.523,45.1,34.672,45.1S192.313,272.047,192.313,254.102z"/>
	<path style="fill:#EFC881;" d="M389.035,254.102c0-17.945-15.523-32.492-34.672-32.492c-19.148,0-34.672,14.547-34.672,32.492
		c0,17.945,15.523,45.1,34.672,45.1S389.035,272.047,389.035,254.102z"/>
</g>
<path style="fill:#F9D387;" d="M373.554,250.598c0,19.529-2.452,38.245-6.949,55.598c-15.873,61.213-57.193,105.333-106.074,107.292
	c-0.145,0.014-0.29,0.029-0.435,0.029c-0.987,0.043-1.987,0.058-2.989,0.058s-2.002-0.014-2.989-0.058
	c-0.145,0-0.29-0.014-0.435-0.029c-48.88-1.959-90.201-46.08-106.074-107.292c-4.498-17.352-6.949-36.068-6.949-55.598
	c0-90.012,52.13-141.214,116.447-141.214S373.554,160.586,373.554,250.598z"/>
<g>
	<path style="fill:#EFC881;" d="M366.604,306.196c-15.873,61.213-57.193,105.333-106.074,107.292
		c22.459-1.741,66.55-36.335,70.308-54.137C334.553,341.708,363.224,309.242,366.604,306.196z"/>
	<path style="fill:#EFC881;" d="M147.61,306.196c15.873,61.213,57.193,105.333,106.074,107.292
		c-22.459-1.741-66.55-36.335-70.308-54.137C179.661,341.708,150.991,309.242,147.61,306.196z"/>
</g>
<g>
	<ellipse style="fill:#FCD99D;" cx="190.388" cy="303.831" rx="20.541" ry="8.513"/>
	<ellipse style="fill:#FCD99D;" cx="321.616" cy="303.831" rx="20.541" ry="8.513"/>
</g>
<path style="fill:#EFC881;" d="M147.91,235.129c0,0,132.991-15.31,157.463-58.505c24.472-43.194-41.893-34.154-41.893-34.154
	l-117.693,46.633l-8.882,31.089"/>
<path style="fill:#666666;" d="M428.642,272.947c0,0-7.755,89.688-92.498,59.785c22.918-16.652,35.312-44.188,32.587-72.39
	l-7.523-77.853c-41.706,18.512-72.401-20.615-72.401-20.615s-35.197,50.972-110.081,58.084c-9.192,0.877-18.987,1.088-29.395,0.465
	l-3.857,39.92c-2.726,28.202,9.669,55.738,32.598,72.39c-84.742,29.903-92.498-59.785-92.498-59.785
	c1.036,4.005,3.371,7.407,6.466,9.805c3.107,2.409,6.984,3.804,11.126,3.804c9.393,0,17.233-7.164,18.089-16.515l7.851-85.694
	c3.032-33.083,18.428-62.288,41.357-83.22c0.274-0.254,0.55-0.496,0.824-0.729c0.761,1.934,6.403,3.519,15.205,4.777
	c41.41,5.896,152.832,4.3,156.435-4.777c23.394,20.964,39.116,50.476,42.181,83.95l7.851,85.694
	c0.433,4.681,2.599,8.801,5.844,11.76c3.244,2.959,7.545,4.754,12.247,4.754C419.333,286.558,426.56,280.957,428.642,272.947z"/>
<path style="fill:#4D4D4D;" d="M178.726,219.958c-9.192,0.877-18.987,1.088-29.395,0.465l-3.857,39.92
	c-2.726,28.202,9.669,55.738,32.598,72.39c-84.742,29.903-92.498-59.785-92.498-59.785c1.036,4.005,3.371,7.407,6.466,9.805
	c3.107,2.409,6.984,3.804,11.126,3.804c9.393,0,17.233-7.164,18.089-16.515l7.851-85.694c3.032-33.083,18.428-62.288,41.357-83.22
	c0.274-0.254,0.55-0.496,0.824-0.729c0.761,1.934,6.403,3.519,15.205,4.777l21.291,20.646
	C207.783,125.821,160.034,157.996,178.726,219.958z"/>
<path style="fill:#F2F2F2;" d="M359.822,57.7c-5.632,14.233-11.264,28.466-16.896,42.698c-4.364,11.01-8.717,22.021-13.081,33.031
	c-37.469-14.835-78.339-17.773-117.149-8.813c-9.594,2.197-19.062,5.146-28.328,8.813c-4.364-11.01-8.717-22.021-13.081-33.031
	c-5.632-14.233-11.274-28.466-16.907-42.698c15.649-6.202,31.72-10.925,48.013-14.191C254.804,33.038,309.484,37.772,359.822,57.7z"
	/>
<path style="fill:#E6E6E6;" d="M212.696,124.618c-9.594,2.197-19.062,5.146-28.328,8.813c-4.364-11.01-8.717-22.021-13.081-33.031
	c-5.631-14.233-11.274-28.466-16.907-42.698c15.649-6.202,31.72-10.925,48.013-14.191L212.696,124.618z"/>
<polygon style="fill:#EB305B;" points="276.981,71.195 265.761,71.195 265.761,59.976 248.453,59.976 248.453,71.195 
	237.233,71.195 237.233,88.504 248.453,88.504 248.453,99.723 265.761,99.723 265.761,88.504 276.981,88.504 "/>
<g>
	<path style="fill:#4D4D4D;" d="M320.208,257.26v22.512c0,4.213-3.408,7.62-7.62,7.62c-4.064,0-7.381-3.179-7.6-7.193
		c-0.01-0.139-0.01-0.289-0.01-0.427V257.26c0-4.213,3.408-7.62,7.61-7.62c2.106,0,4.014,0.854,5.384,2.225
		c0.984,0.984,1.699,2.235,2.026,3.626C320.138,256.057,320.208,256.654,320.208,257.26z"/>
	<path style="fill:#4D4D4D;" d="M199.413,287.39L199.413,287.39c-4.206,0-7.617-3.41-7.617-7.617v-22.518
		c0-4.206,3.41-7.617,7.617-7.617l0,0c4.206,0,7.617,3.41,7.617,7.617v22.518C207.029,283.98,203.619,287.39,199.413,287.39z"/>
</g>
<g>
	<path style="fill:#68635B;" d="M331.099,229.654c0-10.22-8.285-18.506-18.506-18.506c-10.22,0-18.506,8.285-18.506,18.506l0,0
		C304.308,219.434,320.878,219.434,331.099,229.654L331.099,229.654z"/>
	<path style="fill:#68635B;" d="M217.918,229.654c0-10.22-8.285-18.506-18.506-18.506c-10.22,0-18.506,8.285-18.506,18.506l0,0
		C191.127,219.434,207.698,219.434,217.918,229.654L217.918,229.654z"/>
</g>
<g>
	<path style="fill:#666666;" d="M320.203,257.26v22.512c0,4.213-3.408,7.62-7.62,7.62c-4.063,0-7.381-3.179-7.6-7.193
		c8.524-8.763,12.845-18.11,15.01-24.707C320.133,256.057,320.203,256.654,320.203,257.26z"/>
	<path style="fill:#666666;" d="M207.023,257.26v22.512c0,4.213-3.408,7.62-7.62,7.62c-4.064,0-7.381-3.179-7.6-7.193
		c8.524-8.763,12.845-18.11,15.01-24.707C206.953,256.057,207.023,256.654,207.023,257.26z"/>
</g>
<path style="fill:#4D4D4D;" d="M297.42,344.816c-0.011,0.111-0.011,0.211-0.022,0.322c-0.044,0.633-0.111,1.266-0.211,1.888
	c-0.078,0.489-0.167,0.966-0.278,1.443c-0.078,0.344-0.167,0.688-0.255,1.033c-0.366,1.321-0.855,2.609-1.466,3.864
	c-1.943,4.064-5.063,7.728-9.071,10.77c-7.572,5.729-18.254,9.304-30.112,9.304c-11.858,0-22.539-3.575-30.112-9.304
	c-4.008-3.042-7.128-6.706-9.071-10.77c-0.611-1.255-1.099-2.543-1.466-3.864c-0.089-0.344-0.178-0.688-0.255-1.033
	c-0.111-0.477-0.2-0.955-0.278-1.443c-0.1-0.622-0.167-1.255-0.211-1.888c-0.011-0.111-0.011-0.211-0.022-0.322
	c1.454,0.289,2.931,0.566,4.441,0.822c11.159,1.932,23.705,3.009,36.973,3.009c13.268,0,25.815-1.077,36.973-3.009
	C294.488,345.382,295.965,345.104,297.42,344.816z"/>
<path style="fill:#F2F2F2;" d="M297.42,344.816c-0.011,0.111-0.011,0.211-0.022,0.322c-0.044,0.633-0.111,1.266-0.211,1.888
	c-0.078,0.489-0.167,0.966-0.278,1.443c-0.078,0.344-0.167,0.688-0.255,1.033c-0.366,1.321-0.855,2.609-1.466,3.864
	c-3.997,0.622-8.161,1.155-12.458,1.577c-8.449,0.844-17.421,1.288-26.725,1.288c-9.304,0-18.276-0.444-26.725-1.288
	c-4.297-0.422-8.461-0.955-12.458-1.577c-0.611-1.255-1.099-2.543-1.466-3.864c-0.089-0.344-0.178-0.688-0.255-1.033
	c-0.111-0.477-0.2-0.955-0.278-1.443c-0.1-0.622-0.167-1.255-0.211-1.888c-0.011-0.111-0.011-0.211-0.022-0.322
	c1.454,0.289,2.931,0.566,4.441,0.822c11.159,1.932,23.705,3.009,36.973,3.009s25.815-1.077,36.973-3.009
	C294.488,345.382,295.965,345.104,297.42,344.816z"/>
<path style="fill:#FFFFFF;" d="M292.978,345.637c-1.81,2.587-4.13,4.952-6.862,7.028c-1.066,0.811-2.198,1.577-3.386,2.276
	c-8.449,0.844-17.421,1.288-26.725,1.288c-9.304,0-18.276-0.444-26.725-1.288c-1.188-0.699-2.321-1.466-3.386-2.276
	c-2.731-2.076-5.052-4.441-6.862-7.028c11.159,1.932,23.705,3.009,36.973,3.009S281.82,347.569,292.978,345.637z"/>
<path style="fill:#E0B775;" d="M246.12,291.481c0-32.691,4.425-52.267,9.883-52.267c5.458,0,9.883,19.577,9.883,52.267
	s-4.425,35.672-9.883,35.672C250.545,327.153,246.12,324.17,246.12,291.481z"/>
<path style="fill:#EFC881;" d="M277.768,381.179c0-4.541-9.743,0.484-21.763,0.484s-21.763-5.024-21.763-0.484
	c0,4.541,9.743,8.222,21.763,8.222C268.024,389.401,277.768,385.721,277.768,381.179z"/>
<g>
</g>
<g>
</g>
<g>
</g>
<g>
</g>
<g>
</g>
<g>
</g>
<g>
</g>
<g>
</g>
<g>
</g>
<g>
</g>
<g>
</g>
<g>
</g>
<g>
</g>
<g>
</g>
<g>
</g>
</svg>
