<svg height="512pt" viewBox="0 0 512 512" width="512pt" xmlns="http://www.w3.org/2000/svg"><path d="m512 256c0 141.386719-114.613281 256-256 256s-256-114.613281-256-256 114.613281-256 256-256 256 114.613281 256 256zm0 0" fill="#dadadc"/><path d="m511.949219 260.054688-182.769531-182.992188c-15.632813-16.679688-37.835938-27.136719-62.445313-27.136719h-21.46875c-47.207031 0-85.617187 38.410157-85.617187 85.617188v48.820312c-56.015626 17.515625-80.082032 93.507813-15.617188 153.117188l100.878906 101.023437c7.742188 12.039063 11.089844 19.535156 11.089844 19.535156l49.214844 49.214844c116.554687-22.699218 204.824218-124.460937 206.734375-247.199218zm0 0" fill="#b0afb5"/><path d="m352.351562 196.261719h-30v-60.71875c0-30.664063-24.949218-55.613281-55.617187-55.613281h-21.46875c-30.664063 0-55.613281 24.949218-55.613281 55.613281v60.71875h-30v-60.71875c0-47.207031 38.40625-85.613281 85.613281-85.613281h21.46875c47.207031 0 85.617187 38.40625 85.617187 85.613281zm0 0" fill="#fff"/><path d="m352.351562 135.539062v60.722657h-30v-60.722657c0-30.660156-24.953124-55.609374-55.621093-55.609374h-10.730469v-30h10.730469c47.210937 0 85.621093 38.398437 85.621093 85.609374zm0 0" fill="#fff5ca"/><path d="m327.5625 180.640625c-58.183594 0-69.082031 44.746094-71.105469 59.933594-.078125.59375-.878906.597656-.964843.003906-2.179688-15.179687-13.484376-59.941406-71.054688-59.941406-77.261719 0-119.039062 101.089843-24.5 169.878906 71.214844 51.816406 96.0625 107.523437 96.0625 107.523437s24.847656-55.707031 96.0625-107.523437c94.539062-68.789063 52.761719-169.875-24.5-169.875zm0 0" fill="#ff74b3"/><path d="m352.058594 350.519531c-71.207032 51.808594-96.058594 107.519531-96.058594 107.519531v-217.019531c.210938-.007812.421875-.160156.460938-.449219 1.960937-14.71875 12.257812-57.21875 65.890624-59.800781 1.6875-.089843 3.429688-.128906 5.207032-.128906 8.769531 0 17.082031 1.300781 24.792968 3.71875 60.207032 18.8125 83.519532 105.179687-.292968 166.160156zm0 0" fill="#ff2e92"/><path d="m284.742188 297.777344c0-15.875-12.867188-28.742188-28.742188-28.742188s-28.742188 12.867188-28.742188 28.742188c0 11.082031 6.273438 20.695312 15.460938 25.492187l-13.15625 39.996094h52.875l-13.15625-39.996094c9.1875-4.796875 15.460938-14.410156 15.460938-25.492187zm0 0" fill="#ff056c"/><path d="m269.28125 323.269531 13.160156 39.992188h-26.441406v-94.230469c15.871094 0 28.738281 12.867188 28.738281 28.75 0 11.078125-6.269531 20.6875-15.457031 25.488281zm0 0" fill="#cf0354"/></svg>