<svg height="511pt" viewBox="0 0 511 511.99982" width="511pt" xmlns="http://www.w3.org/2000/svg"><path d="m512.457031 260.738281c-2.527343 139.199219-116.15625 251.261719-255.957031 251.261719-61.816406 0-118.503906-21.902344-162.742188-58.390625-2.019531-1.660156-4.011718-3.351563-5.976562-5.089844-2.363281-2.054687-4.683594-4.167969-6.960938-6.320312-3.257812-3.070313-6.4375-6.238281-9.527343-9.476563-5.402344-5.652344-10.554688-11.566406-15.414063-17.699218-34.667968-43.667969-55.378906-98.933594-55.378906-159.023438 0-139.804688 112.0625-253.429688 251.261719-255.9570312 144.5625-2.6249998 263.320312 116.1289062 260.695312 260.6953122zm0 0" fill="#66cc9a"/><path d="m93.757812 290.773438v162.835937c-4.441406-3.65625-8.757812-7.460937-12.9375-11.410156-3.257812-3.070313-6.4375-6.238281-9.527343-9.476563v-141.949218c0-4.417969 3.570312-7.992188 7.980469-7.992188h6.5c.523437 0 1.023437.050781 1.515624.144531 3.6875.710938 6.46875 3.949219 6.46875 7.847657zm0 0" fill="#d93d3d"/><path d="m93.757812 290.773438v162.835937c-4.441406-3.65625-8.757812-7.460937-12.9375-11.410156v-151.425781c0-3.898438 2.78125-7.136719 6.46875-7.847657 3.6875.710938 6.46875 3.949219 6.46875 7.847657zm0 0" fill="#fc5b5b"/><path d="m143.644531 204.035156h225.699219v210.027344h-225.699219zm0 0" fill="#125699"/><path d="m382.617188 449.578125v29.246094c-14.898438 8.453125-30.730469 15.453125-47.300782 20.804687-24.828125 8.035156-51.316406 12.371094-78.816406 12.371094-22.882812 0-45.066406-3-66.175781-8.640625-3.824219-1.015625-7.605469-2.121094-11.355469-3.3125-.429688-.136719-.859375-.273437-1.285156-.417969-5.988282-1.925781-11.882813-4.078125-17.660156-6.4375-10.230469-4.160156-20.125-8.964844-29.644532-14.367187v-29.246094c0-20.03125 6.199219-38.621094 16.773438-53.949219 13.363281-19.394531 33.738281-33.574218 57.476562-38.871094.554688-.136718 1.128906-.261718 1.695313-.375 3.730469-.761718 7.53125-1.304687 11.410156-1.621093 2.570313-.207031 5.160156-.3125 7.785156-.3125h61.949219c6.679688 0 13.1875.679687 19.46875 1.984375.480469.09375.960938.199218 1.429688.316406.136718.019531.261718.050781.398437.082031 23.5625 5.390625 43.78125 19.519531 57.082031 38.796875 10.574219 15.328125 16.769532 33.917969 16.769532 53.949219zm0 0" fill="#d93d3d"/><path d="m382.613281 449.578125v29.246094c-37.21875 21.117187-80.257812 33.175781-126.117187 33.175781-27.03125 0-53.070313-4.191406-77.53125-11.953125v-50.46875c0-52.539063 42.601562-95.128906 95.148437-95.128906h13.355469c52.554688 0 95.144531 42.589843 95.144531 95.128906zm0 0" fill="#fc5b5b"/><path d="m308.367188 356.75v26.078125c0 23.25-18.847657 42.097656-42.097657 42.097656h-19.539062c-23.25 0-42.101563-18.847656-42.101563-42.097656v-26.070313c.554688-.136718 1.128906-.261718 1.695313-.375 3.730469-.761718 7.53125-1.304687 11.410156-1.621093 2.570313-.207031 5.160156-.3125 7.785156-.3125h61.949219c6.679688 0 13.1875.679687 19.46875 1.984375.480469.09375.960938.199218 1.429688.316406zm0 0" fill="#fee887"/><path d="m225.519531 354.449219h48.597657c-27.398438 0-52.089844 11.578125-69.457032 30.113281-.019531-.574219-.03125-1.148438-.03125-1.734375v-26.070313c.554688-.136718 1.128906-.261718 1.695313-.375 3.730469-.761718 7.53125-1.304687 11.410156-1.621093 2.570313-.207031 5.160156-.3125 7.785156-.3125zm0 0" fill="#fd9b3d"/><path d="m290.4375 317.800781v41.65625c0 15.25-10.054688 28.140625-23.90625 32.421875-3.167969.980469-6.546875 1.515625-10.042969 1.515625-18.742187 0-33.9375-15.195312-33.9375-33.9375v-41.65625zm0 0" fill="#e7aa91"/><path d="m290.4375 356.816406v2.640625c0 15.25-10.054688 28.140625-23.90625 32.421875-12.496094-3.84375-21.890625-14.707031-23.625-28.003906 2.265625.140625 4.546875.210938 6.835938.210938 6.421874 0 12.71875-.511719 18.851562-1.519532 7.554688-1.210937 14.855469-3.15625 21.84375-5.75zm0 0" fill="#f4c1a8"/><path d="m161.851562 249.535156c0 15.710938-11.476562 28.742188-26.507812 31.15625-1.644531.269532-3.332031.40625-5.054688.40625-17.4375 0-31.566406-14.128906-31.566406-31.5625 0-17.4375 14.128906-31.566406 31.566406-31.566406 1.722657 0 3.410157.136719 5.054688.40625 15.03125 2.417969 26.507812 15.445312 26.507812 31.160156zm0 0" fill="#f4c1a8"/><path d="m161.851562 249.535156c0 15.710938-11.476562 28.742188-26.507812 31.15625-2.730469-9.925781-4.1875-20.375-4.1875-31.15625 0-10.785156 1.457031-21.234375 4.1875-31.160156 15.03125 2.417969 26.507812 15.445312 26.507812 31.160156zm0 0" fill="#e7aa91"/><path d="m141.570312 249.535156c0 6.230469-5.050781 11.28125-11.28125 11.28125-6.230468 0-11.285156-5.050781-11.285156-11.28125 0-6.230468 5.054688-11.285156 11.285156-11.285156 6.230469 0 11.28125 5.054688 11.28125 11.285156zm0 0" fill="#e7aa91"/><path d="m351.136719 249.535156c0 15.710938 11.476562 28.742188 26.507812 31.15625 1.644531.269532 3.332031.40625 5.058594.40625 17.4375 0 31.5625-14.128906 31.5625-31.5625 0-17.4375-14.125-31.566406-31.5625-31.566406-1.726563 0-3.414063.136719-5.058594.40625-15.03125 2.417969-26.507812 15.445312-26.507812 31.160156zm0 0" fill="#f4c1a8"/><path d="m351.136719 249.535156c0 15.710938 11.476562 28.742188 26.507812 31.15625 2.730469-9.925781 4.191407-20.375 4.191407-31.15625 0-10.785156-1.457032-21.234375-4.191407-31.160156-15.03125 2.417969-26.507812 15.445312-26.507812 31.160156zm0 0" fill="#e7aa91"/><path d="m393.984375 249.535156c0 6.230469-5.050781 11.28125-11.28125 11.28125s-11.28125-5.050781-11.28125-11.28125c0-6.230468 5.050781-11.285156 11.28125-11.285156s11.28125 5.054688 11.28125 11.285156zm0 0" fill="#e7aa91"/><path d="m373.9375 188.039062v44.722657c0 58.441406-42.695312 106.921875-98.597656 115.917969-.1875.035156-.386719.066406-.574219.097656-5.945313.949218-12.046875 1.417968-18.277344 1.417968-64.855469 0-117.433593-52.578124-117.433593-117.433593v-44.722657c0-13.65625 2.328124-26.78125 6.632812-38.972656 16.0625-45.707031 59.613281-78.472656 110.800781-78.472656h.011719c6.21875 0 12.332031.480469 18.285156 1.421875 56.175782 8.777344 99.152344 57.382813 99.152344 116.023437zm0 0" fill="#e7aa91"/><path d="m373.9375 188.039062v44.722657c0 58.4375-42.695312 106.921875-98.597656 115.917969-.1875.03125-.386719.0625-.574219.09375-56.175781-8.777344-99.140625-57.382813-99.140625-116.011719v-44.722657c0-58.640624 42.976562-107.25 99.160156-116.027343 56.175782 8.78125 99.152344 57.386719 99.152344 116.027343zm0 0" fill="#f4c1a8"/><g fill="#e7aa91"><path d="m336.429688 263.59375c0 8.082031-6.550782 14.628906-14.628907 14.628906s-14.628906-6.546875-14.628906-14.628906c0-8.078125 6.550781-14.625 14.628906-14.625s14.628907 6.546875 14.628907 14.625zm0 0"/><path d="m205.816406 263.59375c0 8.082031-6.546875 14.628906-14.628906 14.628906-8.078125 0-14.625-6.546875-14.625-14.628906 0-8.078125 6.546875-14.625 14.625-14.625 8.082031 0 14.628906 6.546875 14.628906 14.625zm0 0"/><path d="m319.5625 222.839844c0-10.769532-8.730469-19.503906-19.503906-19.503906-10.773438 0-19.503906 8.734374-19.503906 19.503906"/><path d="m232.445312 222.839844c0-10.769532-8.734374-19.503906-19.503906-19.503906-10.773437 0-19.507812 8.734374-19.507812 19.503906"/></g><path d="m226.261719 231.144531c0 7.359375-5.964844 13.324219-13.320313 13.324219-7.359375 0-13.324218-5.964844-13.324218-13.324219 0-7.355469 5.964843-13.320312 13.324218-13.320312 7.355469 0 13.320313 5.964843 13.320313 13.320312zm0 0" fill="#31383b"/><path d="m313.378906 231.144531c0 7.359375-5.964844 13.324219-13.320312 13.324219-7.359375 0-13.324219-5.964844-13.324219-13.324219 0-7.355469 5.964844-13.320312 13.324219-13.320312 7.355468 0 13.320312 5.964843 13.320312 13.320312zm0 0" fill="#31383b"/><path d="m269.820312 264.691406h-26.644531c-3.171875 0-5.746093-2.574218-5.746093-5.75 0-3.171875 2.574218-5.746094 5.746093-5.746094h26.644531c3.175782 0 5.75 2.574219 5.75 5.746094 0 3.175782-2.574218 5.75-5.75 5.75zm0 0" fill="#e7aa91"/><path d="m256.5 301.050781c-9.835938 0-19.667969-2.464843-28.632812-7.394531-2.527344-1.386719-3.453126-4.566406-2.0625-7.09375 1.390624-2.527344 4.566406-3.449219 7.097656-2.0625 14.773437 8.125 32.417968 8.125 47.195312 0 2.527344-1.390625 5.703125-.46875 7.09375 2.0625 1.390625 2.527344.46875 5.707031-2.0625 7.09375-8.960937 4.929688-18.796875 7.394531-28.628906 7.394531zm0 0" fill="#e7aa91"/><path d="m223.546875 228.792969c0 3.152343-2.554687 5.710937-5.707031 5.710937s-5.710938-2.558594-5.710938-5.710937c0-3.152344 2.558594-5.707031 5.710938-5.707031s5.707031 2.554687 5.707031 5.707031zm0 0" fill="#fff"/><path d="m311.316406 228.792969c0 3.152343-2.554687 5.710937-5.707031 5.710937s-5.707031-2.558594-5.707031-5.710937c0-3.152344 2.554687-5.707031 5.707031-5.707031s5.707031 2.554687 5.707031 5.707031zm0 0" fill="#fff"/><path d="m377.644531 218.371094c-163.066406 0-181.75-65.535156-181.75-65.535156s-23.925781 65.535156-60.550781 65.535156c0 0-11.546875-21.460938-3.1875-76.839844 30.300781-5.414062 64.785156-67.0625 64.785156-67.0625 124.90625-35.839844 148.617188 18.34375 161.957032 65.308594 2.070312 7.277344 23.574218.816406 24.359374 8.15625 3.914063 36.425781-5.613281 70.4375-5.613281 70.4375zm0 0" fill="#2385ec"/><path d="m195.894531 152.835938s-23.925781 65.535156-60.550781 65.535156c0 0-11.546875-21.460938-3.1875-76.839844 26.253906 9.289062 64.785156-67.0625 64.785156-67.0625s-29.082031 46.738281-1.046875 78.367188zm0 0" fill="#125699"/><path d="m381.207031 138.679688v13.214843h-249.414062v-13.214843c0-8.460938.839843-16.726563 2.449219-24.714844 9.03125-44.949219 42.238281-81.15625 85.476562-94.476563 11.621094-3.585937 23.976562-5.519531 36.78125-5.519531.769531 0 1.539062.011719 2.300781.035156 67.8125 1.21875 122.40625 56.574219 122.40625 124.675782zm0 0" fill="#fd9b3d"/><path d="m381.207031 138.679688v8.617187h-122.40625v-133.292969c67.8125 1.21875 122.40625 56.574219 122.40625 124.675782zm0 0" fill="#fee887"/><path d="m219.71875 19.488281v94.476563h-85.484375c9.039063-44.949219 42.246094-81.15625 85.484375-94.476563zm0 0" fill="#fee887"/><path d="m320.863281 149.597656-6.882812 32.339844c-1.828125 8.621094-9.445313 14.785156-18.265625 14.785156h-78.441406c-8.808594 0-16.425782-6.164062-18.265626-14.785156l-6.875-32.339844zm0 0" fill="#fd9b3d"/><path d="m316.039062 172.28125-2.058593 9.65625c-1.828125 8.621094-9.445313 14.785156-18.265625 14.785156h-65.503906c-8.808594 0-16.425782-6.164062-18.265626-14.785156-1.054687-4.972656 2.738282-9.65625 7.820313-9.65625zm0 0" fill="#fee887"/><path d="m386.476562 130.058594h-259.960937c-6.609375 0-11.964844 5.359375-11.964844 11.96875v12.84375c0 6.609375 5.355469 11.96875 11.964844 11.96875h259.964844c6.609375 0 11.96875-5.359375 11.96875-11.96875v-12.84375c0-6.609375-5.359375-11.96875-11.972657-11.96875zm0 0" fill="#fee887"/><path d="m190.515625 166.839844h-64c-6.605469 0-11.964844-5.363282-11.964844-11.964844v-12.851562c0-6.605469 5.359375-11.964844 11.964844-11.964844h64c-6.605469 0-11.964844 5.359375-11.964844 11.964844v12.851562c0 6.601562 5.359375 11.964844 11.964844 11.964844zm0 0" fill="#fd9b3d"/><path d="m219.71875 19.488281v4.699219c-25.882812 15.988281-45.273438 49.339844-50.96875 89.777344l-17.226562 7.878906-17.289063-7.878906c9.039063-44.949219 42.246094-81.15625 85.484375-94.476563zm0 0" fill="#fd9b3d"/><path d="m267.75.28125h-22.503906c-5.210938 0-9.4375 4.226562-9.4375 9.4375v142.175781h41.378906v-142.175781c0-5.210938-4.226562-9.4375-9.4375-9.4375zm0 0" fill="#fee887"/><path d="m177.683594 449.578125v50.050781c-5.988282-1.925781-11.882813-4.078125-17.660156-6.4375-10.230469-4.160156-20.125-8.964844-29.644532-14.367187v-29.246094c0-20.03125 6.199219-38.621094 16.773438-53.949219zm0 0" fill="#fd9b3d"/><path d="m382.617188 449.578125v29.246094c-14.898438 8.453125-30.730469 15.453125-47.300782 20.804687v-50.050781l30.53125-53.949219c10.574219 15.328125 16.769532 33.917969 16.769532 53.949219zm0 0" fill="#fee887"/><path d="m109.167969 392.652344v29.746094c0 11.203124-6.917969 20.792968-16.71875 24.722656-1.492188.605468-3.058594 1.078125-4.667969 1.398437-2.363281-2.054687-4.683594-4.167969-6.960938-6.320312-3.257812-3.070313-6.4375-6.238281-9.527343-9.476563-5.402344-5.652344-10.554688-11.566406-15.414063-17.699218v-22.371094c0-14.714844 11.933594-26.644532 26.644532-26.644532 3.511718 0 6.855468.675782 9.925781 1.910157 3.367187 1.347656 6.394531 3.363281 8.914062 5.894531 4.816407 4.828125 7.804688 11.480469 7.804688 18.839844zm0 0" fill="#e7aa91"/><path d="m109.167969 392.648438v29.75c0 11.199218-6.917969 20.792968-16.71875 24.722656-9.800781-3.929688-16.71875-13.523438-16.71875-24.722656v-29.75c0-11.199219 6.917969-20.792969 16.71875-24.730469 3.367187 1.347656 6.394531 3.363281 8.914062 5.890625 4.816407 4.828125 7.804688 11.484375 7.804688 18.839844zm0 0" fill="#f4c1a8"/><path d="m133.589844 307.636719v39.53125c0 5.714843-4.640625 10.351562-10.367188 10.351562h-81.398437c-5.726563 0-10.363281-4.636719-10.363281-10.351562v-39.53125c0-5.726563 4.636718-10.363281 10.363281-10.363281h81.398437c5.726563 0 10.367188 4.636718 10.367188 10.363281zm0 0" fill="#e5ded4"/><path d="m133.589844 307.636719v39.53125c0 5.714843-4.640625 10.351562-10.367188 10.351562h-52.796875c-5.726562 0-10.367187-4.636719-10.367187-10.351562v-39.53125c0-5.726563 4.640625-10.363281 10.367187-10.363281h52.796875c5.726563 0 10.367188 4.636718 10.367188 10.363281zm0 0" fill="#fcf9f4"/><path d="m332.429688 71.234375c-10.886719 0-19.710938 8.824219-19.710938 19.710937 0 10.886719 8.824219 19.710938 19.710938 19.710938 10.886718 0 19.710937-8.824219 19.710937-19.710938 0-10.886718-8.824219-19.710937-19.710937-19.710937zm0 0" fill="#fffbee"/></svg>